<mxfile host="app.diagrams.net" modified="2020-12-07T17:06:07.098Z" agent="5.0 (Windows NT 10.0; Win64; x64) AppleWebKit/537.36 (KHTML, like Gecko) Chrome/87.0.4280.88 Safari/537.36" etag="nqyuipW5k-gHQqunNvUd" version="13.11.0" type="github">
  <diagram id="bHcOvYfrL9goIVtMtQhO" name="Page-1">
    <mxGraphModel dx="1038" dy="579" grid="1" gridSize="10" guides="1" tooltips="1" connect="1" arrows="1" fold="1" page="1" pageScale="1" pageWidth="850" pageHeight="1100" math="0" shadow="0">
      <root>
        <mxCell id="0" />
        <mxCell id="1" parent="0" />
        <mxCell id="B_o1QW7MiyZ66WVvcyXD-1" value="" style="ellipse;html=1;shape=startState;fillColor=#000000;strokeColor=#ff0000;" vertex="1" parent="1">
          <mxGeometry x="30" y="80" width="30" height="30" as="geometry" />
        </mxCell>
        <mxCell id="B_o1QW7MiyZ66WVvcyXD-2" value="" style="edgeStyle=orthogonalEdgeStyle;html=1;verticalAlign=bottom;endArrow=open;endSize=8;strokeColor=#ff0000;" edge="1" source="B_o1QW7MiyZ66WVvcyXD-1" parent="1">
          <mxGeometry relative="1" as="geometry">
            <mxPoint x="110" y="95" as="targetPoint" />
          </mxGeometry>
        </mxCell>
        <mxCell id="B_o1QW7MiyZ66WVvcyXD-3" value="Login" style="shape=ext;rounded=1;html=1;whiteSpace=wrap;strokeWidth=3;" vertex="1" parent="1">
          <mxGeometry x="120" y="55" width="120" height="80" as="geometry" />
        </mxCell>
        <mxCell id="B_o1QW7MiyZ66WVvcyXD-4" value="Search Restaurant" style="shape=ext;rounded=1;html=1;whiteSpace=wrap;strokeWidth=3;" vertex="1" parent="1">
          <mxGeometry x="290" y="55" width="120" height="80" as="geometry" />
        </mxCell>
        <mxCell id="B_o1QW7MiyZ66WVvcyXD-5" value="Is Restaurant Found" style="rhombus;whiteSpace=wrap;html=1;fillColor=#ffffc0;strokeColor=#ff0000;" vertex="1" parent="1">
          <mxGeometry x="320" y="170" width="80" height="40" as="geometry" />
        </mxCell>
        <mxCell id="B_o1QW7MiyZ66WVvcyXD-6" value="no" style="edgeStyle=orthogonalEdgeStyle;html=1;align=left;verticalAlign=bottom;endArrow=open;endSize=8;strokeColor=#ff0000;entryX=1;entryY=0.5;entryDx=0;entryDy=0;" edge="1" source="B_o1QW7MiyZ66WVvcyXD-5" parent="1" target="B_o1QW7MiyZ66WVvcyXD-4">
          <mxGeometry x="-1" relative="1" as="geometry">
            <mxPoint x="460" y="190" as="targetPoint" />
            <Array as="points">
              <mxPoint x="420" y="190" />
              <mxPoint x="420" y="95" />
            </Array>
          </mxGeometry>
        </mxCell>
        <mxCell id="B_o1QW7MiyZ66WVvcyXD-7" value="yes" style="edgeStyle=orthogonalEdgeStyle;html=1;align=left;verticalAlign=top;endArrow=open;endSize=8;strokeColor=#ff0000;" edge="1" source="B_o1QW7MiyZ66WVvcyXD-5" parent="1">
          <mxGeometry x="-1" relative="1" as="geometry">
            <mxPoint x="360" y="270" as="targetPoint" />
          </mxGeometry>
        </mxCell>
        <mxCell id="B_o1QW7MiyZ66WVvcyXD-10" value="" style="endArrow=classic;html=1;exitX=0.583;exitY=1.063;exitDx=0;exitDy=0;exitPerimeter=0;entryX=0.5;entryY=0;entryDx=0;entryDy=0;" edge="1" parent="1" source="B_o1QW7MiyZ66WVvcyXD-4" target="B_o1QW7MiyZ66WVvcyXD-5">
          <mxGeometry width="50" height="50" relative="1" as="geometry">
            <mxPoint x="400" y="330" as="sourcePoint" />
            <mxPoint x="450" y="280" as="targetPoint" />
          </mxGeometry>
        </mxCell>
        <mxCell id="B_o1QW7MiyZ66WVvcyXD-11" value="" style="endArrow=classic;html=1;exitX=1;exitY=0.5;exitDx=0;exitDy=0;entryX=0;entryY=0.5;entryDx=0;entryDy=0;" edge="1" parent="1" source="B_o1QW7MiyZ66WVvcyXD-3" target="B_o1QW7MiyZ66WVvcyXD-4">
          <mxGeometry width="50" height="50" relative="1" as="geometry">
            <mxPoint x="400" y="330" as="sourcePoint" />
            <mxPoint x="450" y="280" as="targetPoint" />
          </mxGeometry>
        </mxCell>
        <mxCell id="B_o1QW7MiyZ66WVvcyXD-15" style="edgeStyle=orthogonalEdgeStyle;rounded=0;orthogonalLoop=1;jettySize=auto;html=1;exitX=0.5;exitY=1;exitDx=0;exitDy=0;" edge="1" parent="1" source="B_o1QW7MiyZ66WVvcyXD-12">
          <mxGeometry relative="1" as="geometry">
            <mxPoint x="360" y="330" as="targetPoint" />
          </mxGeometry>
        </mxCell>
        <mxCell id="B_o1QW7MiyZ66WVvcyXD-12" value="Is Restaurant Open" style="rhombus;whiteSpace=wrap;html=1;fillColor=#ffffc0;strokeColor=#ff0000;" vertex="1" parent="1">
          <mxGeometry x="320" y="270" width="80" height="40" as="geometry" />
        </mxCell>
        <mxCell id="B_o1QW7MiyZ66WVvcyXD-13" value="no" style="edgeStyle=orthogonalEdgeStyle;html=1;align=left;verticalAlign=bottom;endArrow=open;endSize=8;strokeColor=#ff0000;" edge="1" source="B_o1QW7MiyZ66WVvcyXD-12" parent="1">
          <mxGeometry x="-1" relative="1" as="geometry">
            <mxPoint x="410" y="90" as="targetPoint" />
            <Array as="points">
              <mxPoint x="460" y="290" />
            </Array>
          </mxGeometry>
        </mxCell>
        <mxCell id="B_o1QW7MiyZ66WVvcyXD-14" value="yes" style="edgeStyle=orthogonalEdgeStyle;html=1;align=left;verticalAlign=top;endArrow=open;endSize=8;strokeColor=#ff0000;exitX=0.5;exitY=1;exitDx=0;exitDy=0;" edge="1" source="B_o1QW7MiyZ66WVvcyXD-12" parent="1">
          <mxGeometry x="-0.6667" y="-10" relative="1" as="geometry">
            <mxPoint x="360" y="330" as="targetPoint" />
            <mxPoint as="offset" />
          </mxGeometry>
        </mxCell>
        <mxCell id="B_o1QW7MiyZ66WVvcyXD-17" value="View menu item and&amp;nbsp;&lt;br&gt;Prices" style="shape=ext;rounded=1;html=1;whiteSpace=wrap;strokeWidth=3;" vertex="1" parent="1">
          <mxGeometry x="300" y="360" width="120" height="80" as="geometry" />
        </mxCell>
        <mxCell id="B_o1QW7MiyZ66WVvcyXD-19" value="Select/Add menu items" style="shape=ext;rounded=1;html=1;whiteSpace=wrap;strokeWidth=3;" vertex="1" parent="1">
          <mxGeometry x="300" y="470" width="120" height="80" as="geometry" />
        </mxCell>
        <mxCell id="B_o1QW7MiyZ66WVvcyXD-20" value="View Total order&lt;br&gt;Cost" style="shape=ext;rounded=1;html=1;whiteSpace=wrap;strokeWidth=3;" vertex="1" parent="1">
          <mxGeometry x="300" y="600" width="120" height="80" as="geometry" />
        </mxCell>
        <mxCell id="B_o1QW7MiyZ66WVvcyXD-21" value="Logout" style="shape=ext;rounded=1;html=1;whiteSpace=wrap;strokeWidth=3;" vertex="1" parent="1">
          <mxGeometry x="100" y="600" width="120" height="80" as="geometry" />
        </mxCell>
        <mxCell id="B_o1QW7MiyZ66WVvcyXD-22" value="" style="html=1;shape=mxgraph.sysml.actFinal;strokeWidth=2;verticalLabelPosition=bottom;verticalAlignment=top;" vertex="1" parent="1">
          <mxGeometry x="10" y="620" width="40" height="40" as="geometry" />
        </mxCell>
        <mxCell id="B_o1QW7MiyZ66WVvcyXD-25" value="" style="endArrow=classic;html=1;entryX=0.5;entryY=0;entryDx=0;entryDy=0;" edge="1" parent="1" target="B_o1QW7MiyZ66WVvcyXD-17">
          <mxGeometry width="50" height="50" relative="1" as="geometry">
            <mxPoint x="360" y="310" as="sourcePoint" />
            <mxPoint x="460" y="220" as="targetPoint" />
          </mxGeometry>
        </mxCell>
        <mxCell id="B_o1QW7MiyZ66WVvcyXD-26" value="" style="endArrow=classic;html=1;exitX=0.5;exitY=1;exitDx=0;exitDy=0;entryX=0.5;entryY=0;entryDx=0;entryDy=0;" edge="1" parent="1" source="B_o1QW7MiyZ66WVvcyXD-17" target="B_o1QW7MiyZ66WVvcyXD-19">
          <mxGeometry width="50" height="50" relative="1" as="geometry">
            <mxPoint x="410" y="270" as="sourcePoint" />
            <mxPoint x="460" y="220" as="targetPoint" />
          </mxGeometry>
        </mxCell>
        <mxCell id="B_o1QW7MiyZ66WVvcyXD-27" value="" style="endArrow=classic;html=1;exitX=0.487;exitY=1.097;exitDx=0;exitDy=0;exitPerimeter=0;" edge="1" parent="1" source="B_o1QW7MiyZ66WVvcyXD-19" target="B_o1QW7MiyZ66WVvcyXD-20">
          <mxGeometry width="50" height="50" relative="1" as="geometry">
            <mxPoint x="410" y="420" as="sourcePoint" />
            <mxPoint x="460" y="370" as="targetPoint" />
          </mxGeometry>
        </mxCell>
        <mxCell id="B_o1QW7MiyZ66WVvcyXD-28" value="" style="endArrow=classic;html=1;exitX=0;exitY=0.5;exitDx=0;exitDy=0;entryX=1;entryY=0.5;entryDx=0;entryDy=0;" edge="1" parent="1" source="B_o1QW7MiyZ66WVvcyXD-20" target="B_o1QW7MiyZ66WVvcyXD-21">
          <mxGeometry width="50" height="50" relative="1" as="geometry">
            <mxPoint x="410" y="420" as="sourcePoint" />
            <mxPoint x="460" y="370" as="targetPoint" />
          </mxGeometry>
        </mxCell>
        <mxCell id="B_o1QW7MiyZ66WVvcyXD-29" value="" style="endArrow=classic;html=1;exitX=0;exitY=0.5;exitDx=0;exitDy=0;entryX=1;entryY=0.5;entryDx=0;entryDy=0;entryPerimeter=0;" edge="1" parent="1" source="B_o1QW7MiyZ66WVvcyXD-21" target="B_o1QW7MiyZ66WVvcyXD-22">
          <mxGeometry width="50" height="50" relative="1" as="geometry">
            <mxPoint x="410" y="420" as="sourcePoint" />
            <mxPoint x="460" y="370" as="targetPoint" />
          </mxGeometry>
        </mxCell>
      </root>
    </mxGraphModel>
  </diagram>
</mxfile>
